<svg xmlns:xlink="http://www.w3.org/1999/xlink" xmlns="http://www.w3.org/2000/svg" width="24" height="24"><defs><symbol id="i-account" viewBox="0 0 25 26" fill="none" xmlns="http://www.w3.org/2000/svg">
        <path d="M20.7031 21.7891H4.29688V21.2194C4.29688 19.2156 5.96099 17.5654 7.39018 16.7796L11.5603 14.4812L10.3073 13.7936C8.79978 12.9685 7.86005 11.397 7.86005 9.66822C7.86005 8.41095 8.34949 7.23226 9.25007 6.34825C10.1507 5.46423 11.3253 4.97311 12.5783 4.99276C15.0843 5.0124 17.1204 7.01617 17.1987 9.5307C17.2574 11.3184 16.3177 12.9489 14.7515 13.8133L13.4789 14.5008L17.5902 16.7796C19.0782 17.6047 20.6835 19.3727 20.6835 21.3176V21.7891H20.7031ZM5.25619 20.8658H19.7438C19.5089 19.5299 18.3342 18.253 17.1595 17.6047L12.5196 15.0312L7.84047 17.6047C6.64622 18.253 5.43239 19.4906 5.25619 20.8658ZM12.5392 5.91606C11.5407 5.91606 10.6205 6.30896 9.89614 6.99652C9.17176 7.70374 8.78021 8.64669 8.78021 9.66822C8.78021 11.0434 9.54375 12.3203 10.7576 12.9685L12.5196 13.9508L14.3012 12.9685C15.5541 12.281 16.3177 10.9648 16.2589 9.5307C16.2198 7.54658 14.5753 5.93571 12.5783 5.91606C12.5587 5.91606 12.5392 5.91606 12.5392 5.91606Z" fill="currentColor"></path>
    </symbol></defs><use xlink:href="#i-account"></use></svg>