<svg xmlns:xlink="http://www.w3.org/1999/xlink" xmlns="http://www.w3.org/2000/svg" width="24" height="24"><defs><symbol id="i-fav" viewBox="0 0 25 26" fill="none" xmlns="http://www.w3.org/2000/svg">
        <path d="M20.4098 6.40262C19.4755 5.47678 18.2227 4.97178 16.9061 4.99282C14.9526 5.01386 13.2963 6.12908 12.5106 7.7493C11.7249 6.12908 10.0474 5.01386 8.11509 4.99282C6.79856 4.97178 5.54572 5.47678 4.59018 6.40262C3.65586 7.32846 3.125 8.56993 3.125 9.87453C3.125 11.7473 4.4203 13.4727 5.52449 14.3564L11.7249 19.4275L9.30422 21.4055V22.668L12.4894 20.0588L15.6745 22.668V21.4055L13.2751 19.4486L19.4755 14.3775C20.5797 13.4727 21.875 11.7473 21.875 9.89557C21.875 8.56993 21.3654 7.32846 20.4098 6.40262ZM18.8597 13.62L12.5106 18.8173L6.16152 13.62C5.22721 12.8414 4.12302 11.4106 4.12302 9.87453C4.12302 8.82244 4.54771 7.83347 5.29091 7.097C6.05535 6.36054 7.05337 5.96074 8.11509 5.96074C10.2385 5.98179 11.9585 7.64409 12.0222 9.74828H12.999C13.0627 7.64409 14.7827 5.98179 16.9061 5.96074C17.9679 5.96074 18.9659 6.36054 19.7303 7.097C20.4948 7.83347 20.8982 8.82244 20.8982 9.87453C20.8982 11.4106 19.794 12.8625 18.8597 13.62Z" fill="currentColor"></path>
    </symbol></defs><use xlink:href="#i-fav"></use></svg>