<svg xmlns:xlink="http://www.w3.org/1999/xlink" xmlns="http://www.w3.org/2000/svg" width="56" height="56" viewBox="0 0 56 56" fill="none">
<rect width="56" height="56" rx="12" fill="#009848"/>
<g clip-path="url(#clip0_4241_24168)">
<path d="M27.9956 30.213C23.4831 27.7102 20.9986 25.9187 20.9986 21.6685C20.9986 17.5412 24.3259 14.933 27.9956 14.933C31.6741 14.9243 35.0014 17.5324 35.0014 21.6597C35.0014 25.9187 32.5081 27.7014 27.9956 30.213ZM27.9956 36.8518L25.3619 35.4029L27.9956 33.9627L30.6294 35.4029L27.9956 36.8518ZM44 28.1054L34.062 33.5411C34.062 33.5411 32.2535 32.5489 31.4283 32.101C33.5177 30.8803 38.671 28.6235 38.671 21.8793C38.6623 16.1185 33.8338 12 27.9956 12C22.1662 12 17.3377 16.1185 17.3377 21.8617C17.3377 28.6147 22.4823 30.8628 24.5805 32.0834C23.7465 32.5401 21.9468 33.5236 21.9468 33.5236L12 28.1054V31.8551L18.5054 35.4117L12 38.9682V42.7179L21.9292 37.2821C21.9292 37.2821 23.8606 38.3359 24.7034 38.8013C22.4033 40.2415 21.3322 41.7519 21.3322 44H24.9317C24.9317 42.3051 26.3013 40.9353 27.9956 40.9353C29.69 40.9353 31.0595 42.3051 31.0595 44H34.659C34.659 41.7431 33.5879 40.2327 31.2878 38.8013C32.1394 38.3359 34.062 37.2821 34.062 37.2821L43.9912 42.7179V38.9682L37.4859 35.4117L43.9912 31.8551V28.1054H44Z" fill="white"/>
</g>
<defs>
<clipPath id="clip0_4241_24168">
<rect width="32" height="32" fill="white" transform="translate(12 12)"/>
</clipPath>
</defs>
</svg>