<svg xmlns:xlink="http://www.w3.org/1999/xlink" xmlns="http://www.w3.org/2000/svg" width="32" height="32" class="mod-only-sm"><defs><symbol id="i-logo-small" viewBox="0 0 32 32" fill="none" xmlns="http://www.w3.org/2000/svg">
        <path d="M15.9956 18.213C11.4831 15.7102 8.99863 13.9188 8.99863 9.6685C8.99863 5.54116 12.3259 2.93304 15.9956 2.93304C19.6741 2.92426 23.0014 5.53238 23.0014 9.65971C23.0014 13.9188 20.5081 15.7014 15.9956 18.213ZM15.9956 24.8518L13.3619 23.4029L15.9956 21.9627L18.6294 23.4029L15.9956 24.8518ZM32 16.1054L22.062 21.5412C22.062 21.5412 20.2535 20.5488 19.4283 20.101C21.5177 18.8804 26.6711 16.6235 26.6711 9.87925C26.6623 4.11855 21.8337 0 15.9956 0C10.1663 0 5.33772 4.11855 5.33772 9.86169C5.33772 16.6147 10.4823 18.8628 12.5805 20.0834C11.7465 20.5401 9.94678 21.5236 9.94678 21.5236L0 16.1054V19.8551L6.50535 23.4116L0 26.9682V30.7179L9.92922 25.2821C9.92922 25.2821 11.8606 26.3359 12.7034 26.8013C10.4033 28.2415 9.33224 29.7519 9.33224 32H12.9317C12.9317 30.3052 14.3012 28.9352 15.9956 28.9352C17.69 28.9352 19.0595 30.3052 19.0595 32H22.659C22.659 29.7431 21.5879 28.2327 19.2878 26.8013C20.1394 26.3359 22.062 25.2821 22.062 25.2821L31.9912 30.7179V26.9682L25.4859 23.4116L31.9912 19.8551V16.1054H32Z" fill="currentColor"></path>
    </symbol></defs><use xlink:href="#i-logo-small"></use></svg>