<svg xmlns:xlink="http://www.w3.org/1999/xlink" xmlns="http://www.w3.org/2000/svg" width="24" height="24"><defs><symbol id="i-search" viewBox="0 0 25 26" fill="none" xmlns="http://www.w3.org/2000/svg">
        <path fill-rule="evenodd" clip-rule="evenodd" d="M14.8438 11.8281C14.8438 14.6327 12.5702 16.9062 9.76562 16.9062C6.96105 16.9062 4.6875 14.6327 4.6875 11.8281C4.6875 9.02355 6.96105 6.75 9.76562 6.75C12.5702 6.75 14.8438 9.02355 14.8438 11.8281ZM13.6457 16.2188C12.6122 17.1328 11.2537 17.6875 9.76562 17.6875C6.52958 17.6875 3.90625 15.0642 3.90625 11.8281C3.90625 8.59208 6.52958 5.96875 9.76562 5.96875C13.0017 5.96875 15.625 8.59208 15.625 11.8281C15.625 13.2938 15.0869 14.6337 14.1975 15.6612L20.5608 20.9016L20.0642 21.5047L13.6457 16.2188Z" fill="currentColor"></path>
    </symbol></defs><use xlink:href="#i-search"></use></svg>