<svg xmlns:xlink="http://www.w3.org/1999/xlink" xmlns="http://www.w3.org/2000/svg" width="25" height="25"><defs><symbol id="i-basket" viewBox="0 0 25 26" fill="none" xmlns="http://www.w3.org/2000/svg">
        <path d="M17.1622 8.83117C17.0048 6.39228 15.018 4.5041 12.5787 4.48444C12.559 4.48444 12.5393 4.48444 12.5393 4.48444C11.3 4.48444 10.1394 4.95648 9.27383 5.82189C8.44761 6.6283 7.97549 7.6904 7.91648 8.83117H4.29688V16.5805C4.29688 19.1768 6.40175 21.2813 8.99842 21.2813H16.0016C18.5982 21.2813 20.7031 19.1768 20.7031 16.5805V8.83117H17.1622ZM9.90333 6.49062C10.6115 5.80222 11.5361 5.40885 12.5197 5.40885C12.5393 5.40885 12.5393 5.40885 12.559 5.40885C14.5065 5.42852 16.0803 6.92333 16.2376 8.83117H8.82138C8.88039 7.94609 9.25416 7.12001 9.90333 6.49062ZM16.1786 9.75559C15.9819 10.8767 15.3131 11.8601 14.2901 12.4108L12.5197 13.3746L10.7689 12.4108C9.74595 11.8601 9.05744 10.8767 8.86072 9.75559H16.1786ZM19.7982 16.6002C19.7982 18.6851 18.1064 20.3766 16.0212 20.3766H8.97875C6.89354 20.3766 5.20178 18.6851 5.20178 16.6002V9.75559H7.93615C8.13287 11.2111 9.0181 12.5092 10.3361 13.2172L11.5754 13.9056L8.66401 15.4988V16.5215L8.68367 16.5412L12.5393 14.4367L16.3557 16.5412V15.4791L13.5033 13.9056L14.7623 13.2172C16.0803 12.5092 16.9655 11.2111 17.1622 9.75559H19.8376V16.6002H19.7982Z" fill="currentColor"></path>
    </symbol></defs><use xlink:href="#i-basket"></use></svg>